<svg width="0" height="0" class="hidden">
    <symbol xmlns="http://www.w3.org/2000/svg" viewBox="0 0 16 16" id="favorite">
        <path d="M11.6652 1.28125C10.9148 1.29293 10.1808 1.50246 9.53722 1.8887C8.89368 2.27494 8.36343 2.8242 8 3.48101C7.63657 2.8242 7.10632 2.27494 6.46278 1.8887C5.81924 1.50246 5.08521 1.29293 4.33481 1.28125C3.13859 1.33324 2.01155 1.85669 1.19993 2.73725C0.38831 3.61781 -0.0419227 4.78389 0.0032261 5.98074C0.0032261 9.01175 3.19261 12.3221 5.86753 14.5665C6.46476 15.0685 7.21988 15.3438 8 15.3438C8.78012 15.3438 9.53523 15.0685 10.1325 14.5665C12.8074 12.3221 15.9968 9.01175 15.9968 5.98074C16.0419 4.78389 15.6117 3.61781 14.8001 2.73725C13.9884 1.85669 12.8614 1.33324 11.6652 1.28125ZM9.27615 13.5466C8.91895 13.8475 8.46698 14.0125 8 14.0125C7.53302 14.0125 7.08105 13.8475 6.72385 13.5466C3.2999 10.6729 1.33602 7.91587 1.33602 5.98074C1.29047 5.13731 1.58017 4.31008 2.14194 3.67946C2.70371 3.04884 3.49197 2.666 4.33481 2.61444C5.17765 2.666 5.96591 3.04884 6.52769 3.67946C7.08946 4.31008 7.37916 5.13731 7.3336 5.98074C7.3336 6.15754 7.40381 6.32709 7.52879 6.4521C7.65376 6.57711 7.82326 6.64734 8 6.64734C8.17674 6.64734 8.34624 6.57711 8.47121 6.4521C8.59619 6.32709 8.6664 6.15754 8.6664 5.98074C8.62084 5.13731 8.91054 4.31008 9.47231 3.67946C10.0341 3.04884 10.8224 2.666 11.6652 2.61444C12.508 2.666 13.2963 3.04884 13.8581 3.67946C14.4198 4.31008 14.7095 5.13731 14.664 5.98074C14.664 7.91587 12.7001 10.6729 9.27615 13.5439V13.5466Z" fill="black"></path>
    </symbol>
    <symbol xmlns="http://www.w3.org/2000/svg" viewBox="0 0 16 16" id="bug">
        <path d="M14 4H12C12 2.93913 11.5786 1.92172 10.8284 1.17157C10.0783 0.421427 9.06087 0 8 0C6.93913 0 5.92172 0.421427 5.17157 1.17157C4.42143 1.92172 4 2.93913 4 4H2C1.46957 4 0.960859 4.21071 0.585786 4.58579C0.210714 4.96086 0 5.46957 0 6L0 12.6667C0.00105857 13.5504 0.352588 14.3976 0.97748 15.0225C1.60237 15.6474 2.4496 15.9989 3.33333 16H12.6667C13.5504 15.9989 14.3976 15.6474 15.0225 15.0225C15.6474 14.3976 15.9989 13.5504 16 12.6667V6C16 5.46957 15.7893 4.96086 15.4142 4.58579C15.0391 4.21071 14.5304 4 14 4ZM8 1.33333C8.70724 1.33333 9.38552 1.61428 9.88562 2.11438C10.3857 2.61448 10.6667 3.29276 10.6667 4H5.33333C5.33333 3.29276 5.61428 2.61448 6.11438 2.11438C6.61448 1.61428 7.29276 1.33333 8 1.33333ZM14.6667 12.6667C14.6667 13.1971 14.456 13.7058 14.0809 14.0809C13.7058 14.456 13.1971 14.6667 12.6667 14.6667H3.33333C2.8029 14.6667 2.29419 14.456 1.91912 14.0809C1.54405 13.7058 1.33333 13.1971 1.33333 12.6667V6C1.33333 5.82319 1.40357 5.65362 1.5286 5.5286C1.65362 5.40357 1.82319 5.33333 2 5.33333H4V6.66667C4 6.84348 4.07024 7.01305 4.19526 7.13807C4.32029 7.2631 4.48986 7.33333 4.66667 7.33333C4.84348 7.33333 5.01305 7.2631 5.13807 7.13807C5.2631 7.01305 5.33333 6.84348 5.33333 6.66667V5.33333H10.6667V6.66667C10.6667 6.84348 10.7369 7.01305 10.8619 7.13807C10.987 7.2631 11.1565 7.33333 11.3333 7.33333C11.5101 7.33333 11.6797 7.2631 11.8047 7.13807C11.9298 7.01305 12 6.84348 12 6.66667V5.33333H14C14.1768 5.33333 14.3464 5.40357 14.4714 5.5286C14.5964 5.65362 14.6667 5.82319 14.6667 6V12.6667Z" fill="black"></path>
    </symbol>
    <symbol xmlns="http://www.w3.org/2000/svg" viewBox="0 0 16 16" id="profile">
        <path d="M8 8C8.79113 8 9.56448 7.76541 10.2223 7.32588C10.8801 6.88635 11.3928 6.26164 11.6955 5.53074C11.9983 4.79983 12.0775 3.99556 11.9231 3.21964C11.7688 2.44372 11.3878 1.73098 10.8284 1.17157C10.269 0.612165 9.55629 0.231202 8.78036 0.0768607C8.00444 -0.0774802 7.20017 0.00173314 6.46927 0.304484C5.73836 0.607234 5.11365 1.11992 4.67412 1.77772C4.2346 2.43552 4 3.20888 4 4C4.00106 5.06054 4.42283 6.07734 5.17274 6.82726C5.92266 7.57718 6.93946 7.99894 8 8ZM8 1.33334C8.52742 1.33334 9.04299 1.48973 9.48152 1.78275C9.92005 2.07577 10.2618 2.49224 10.4637 2.97951C10.6655 3.46678 10.7183 4.00296 10.6154 4.52024C10.5125 5.03753 10.2586 5.51268 9.88562 5.88562C9.51268 6.25856 9.03752 6.51254 8.52024 6.61543C8.00296 6.71832 7.46678 6.66551 6.97951 6.46368C6.49224 6.26185 6.07577 5.92005 5.78275 5.48152C5.48973 5.04299 5.33333 4.52742 5.33333 4C5.33333 3.29276 5.61428 2.61448 6.11438 2.11438C6.61448 1.61429 7.29276 1.33334 8 1.33334Z" fill="black"></path>
        <path d="M8 9.34375C6.40924 9.34551 4.88414 9.97723 3.75931 11.1003C2.63447 12.2234 2.00176 13.7461 2 15.3344C2 15.5109 2.07024 15.6802 2.19526 15.805C2.32029 15.9299 2.48986 16 2.66667 16C2.84348 16 3.01305 15.9299 3.13807 15.805C3.2631 15.6802 3.33333 15.5109 3.33333 15.3344C3.33333 14.0986 3.825 12.9135 4.70017 12.0397C5.57534 11.1659 6.76232 10.675 8 10.675C9.23768 10.675 10.4247 11.1659 11.2998 12.0397C12.175 12.9135 12.6667 14.0986 12.6667 15.3344C12.6667 15.5109 12.7369 15.6802 12.8619 15.805C12.987 15.9299 13.1565 16 13.3333 16C13.5101 16 13.6797 15.9299 13.8047 15.805C13.9298 15.6802 14 15.5109 14 15.3344C13.9982 13.7461 13.3655 12.2234 12.2407 11.1003C11.1159 9.97723 9.59076 9.34551 8 9.34375Z" fill="black"></path>
    </symbol>
    <symbol xmlns="http://www.w3.org/2000/svg" viewBox="0 0 16 16" id="search">
        <path d="M15.7818 14.8399L11.8057 10.8638C12.8892 9.53862 13.422 7.84768 13.2937 6.14073C13.1655 4.43377 12.386 2.84142 11.1167 1.69302C9.84728 0.544623 8.18507 -0.0719494 6.47384 -0.0291633C4.76261 0.0136227 3.13329 0.712493 1.92289 1.92289C0.712493 3.13329 0.0136227 4.76261 -0.0291633 6.47384C-0.0719494 8.18507 0.544623 9.84728 1.69302 11.1167C2.84142 12.386 4.43377 13.1655 6.14073 13.2937C7.84768 13.422 9.53862 12.8892 10.8638 11.8057L14.8399 15.7818C14.9655 15.9031 15.1338 15.9702 15.3084 15.9687C15.4831 15.9672 15.6501 15.8972 15.7736 15.7736C15.8972 15.6501 15.9672 15.4831 15.9687 15.3084C15.9702 15.1338 15.9031 14.9655 15.7818 14.8399ZM6.65126 11.9802C5.5973 11.9802 4.567 11.6677 3.69066 11.0821C2.81431 10.4966 2.13129 9.66431 1.72795 8.69057C1.32462 7.71683 1.21909 6.64535 1.4247 5.61164C1.63032 4.57792 2.13786 3.62839 2.88312 2.88312C3.62839 2.13786 4.57792 1.63032 5.61164 1.4247C6.64535 1.21909 7.71683 1.32462 8.69057 1.72795C9.66431 2.13129 10.4966 2.81431 11.0821 3.69066C11.6677 4.567 11.9802 5.5973 11.9802 6.65126C11.9786 8.0641 11.4167 9.41862 10.4177 10.4177C9.41862 11.4167 8.0641 11.9786 6.65126 11.9802Z"></path>
      </symbol>
    <symbol version="1.0"
        xmlns="http://www.w3.org/2000/svg" preserveAspectRatio="xMidYMid meet" viewBox="0 0 512.000000 512.000000" id="telegram">
        <g transform="translate(0.000000,512.000000) scale(0.100000,-0.100000)"  >
            <path d="M4665 4716 c-27 -8 -403 -149 -835 -314 -432 -165 -1413 -539 -2180
      -832 -767 -293 -1424 -546 -1459 -563 -69 -33 -140 -96 -166 -146 -25 -50 -30
      -121 -11 -179 21 -62 97 -137 176 -174 30 -14 265 -86 522 -159 l467 -134 251
      -720 c166 -475 264 -739 286 -777 43 -70 111 -132 184 -167 48 -23 68 -26 155
      -26 84 0 109 4 152 24 83 37 122 69 423 346 156 143 286 260 291 260 4 0 189
      -146 411 -325 221 -178 425 -339 451 -357 109 -74 272 -93 379 -45 90 39 176
      138 213 242 9 25 179 846 378 1825 328 1618 361 1789 361 1875 -1 162 -56 260
      -180 321 -78 38 -186 48 -269 25z m143 -298 c7 -7 12 -26 12 -43 0 -52 -720
      -3588 -738 -3624 -46 -94 -70 -82 -420 199 -957 769 -1187 957 -1187 967 0 6
      349 381 775 834 426 452 783 835 793 850 24 37 24 110 0 152 -20 35 -92 77
      -131 77 -26 0 -141 -58 -1660 -834 l-972 -497 -450 128 c-247 70 -450 130
      -450 133 0 3 289 115 643 249 353 135 847 323 1097 419 250 95 595 227 765
      292 361 138 1823 695 1845 703 27 10 66 7 78 -5z m-1645 -1320 c-200 -210
      -1037 -1104 -1047 -1121 -8 -12 -60 -209 -117 -437 -56 -228 -104 -420 -108
      -427 -3 -6 -97 250 -209 569 -111 320 -201 582 -200 583 5 4 962 492 1323 675
      198 101 364 187 370 191 5 5 14 9 19 9 6 0 -8 -19 -31 -42z m-650 -1607 c92
      -74 167 -137 166 -140 -1 -9 -530 -493 -534 -489 -2 2 37 165 86 363 48 198
      91 370 94 383 3 13 9 22 13 20 4 -2 83 -63 175 -137z"></path>
        </g>
    </symbol>
    <symbol version="1.0"
        xmlns="http://www.w3.org/2000/svg" preserveAspectRatio="xMidYMid meet" viewBox="0 0 512.000000 512.000000" id="snapchat">
        <g transform="translate(0.000000,512.000000) scale(0.100000,-0.100000)"  >
            <path d="M2355 4944 c-220 -33 -390 -85 -551 -168 -388 -202 -603 -483 -685
      -895 -26 -135 -41 -405 -32 -589 5 -83 4 -152 -1 -152 -4 0 -36 7 -70 16 -93
      24 -234 16 -308 -18 -80 -37 -121 -71 -161 -131 -46 -69 -59 -114 -59 -198 0
      -59 5 -82 32 -135 54 -110 140 -167 390 -259 85 -31 156 -58 158 -60 7 -7 -85
      -193 -125 -252 -59 -91 -198 -229 -296 -294 -108 -72 -196 -115 -354 -172
      -148 -54 -205 -86 -243 -139 -60 -83 -63 -176 -10 -285 53 -107 161 -184 350
      -247 58 -19 146 -43 196 -53 l91 -18 26 -86 c34 -111 78 -176 140 -208 61 -31
      169 -33 347 -7 163 24 296 18 372 -16 29 -14 123 -69 208 -123 352 -225 548
      -296 811 -296 229 0 447 73 659 221 197 137 266 181 319 202 79 30 237 36 388
      13 137 -21 200 -17 273 17 79 36 135 97 183 200 28 58 48 88 58 88 37 0 249
      60 323 90 101 42 216 119 262 175 101 124 97 264 -11 372 -42 41 -64 55 -111
      67 -176 47 -216 61 -288 97 -43 22 -109 60 -145 86 -102 72 -248 225 -324 339
      -70 105 -121 213 -108 227 4 4 61 28 126 52 64 25 148 61 186 81 87 46 186
      136 224 205 27 49 30 63 30 144 0 75 -4 97 -23 133 -81 152 -286 238 -472 199
      -41 -8 -84 -19 -94 -23 -17 -6 -18 -4 -13 27 3 19 9 115 13 214 18 517 -83
      827 -365 1119 -213 219 -450 348 -766 416 -80 18 -141 22 -310 25 -115 2 -223
      1 -240 -1z m547 -352 c367 -96 643 -337 752 -660 55 -161 61 -216 57 -497 -8
      -506 -8 -506 14 -550 32 -63 89 -90 195 -90 73 0 100 5 192 37 58 21 115 35
      125 32 54 -18 73 -28 73 -40 0 -23 -57 -54 -182 -100 -174 -64 -269 -116 -326
      -179 -99 -108 -96 -228 9 -440 173 -348 530 -662 870 -766 l74 -23 -61 -27
      c-76 -35 -151 -54 -281 -74 -56 -8 -121 -22 -143 -31 -61 -25 -104 -81 -130
      -174 -31 -109 -40 -116 -138 -102 -218 32 -359 23 -532 -34 -123 -41 -181 -72
      -385 -204 -226 -147 -309 -183 -445 -196 -188 -17 -403 61 -698 250 -152 98
      -263 157 -348 183 -75 23 -263 23 -448 0 -72 -9 -132 -15 -134 -13 -2 3 -14
      45 -27 95 -42 166 -71 189 -278 227 -146 26 -287 68 -319 94 -20 16 -19 17 58
      44 44 15 134 54 201 86 327 156 524 364 693 731 80 173 66 285 -50 392 -65 60
      -156 110 -285 157 -103 38 -180 74 -191 91 -10 17 32 49 64 49 14 0 74 -16
      134 -35 179 -58 270 -59 333 -3 67 58 73 111 66 598 -3 277 8 380 60 535 99
      297 333 510 680 620 143 45 225 54 439 51 180 -3 204 -6 312 -34z"></path>
        </g>
    </symbol>
    <symbol version="1.0"
        xmlns="http://www.w3.org/2000/svg" preserveAspectRatio="xMidYMid meet" viewBox="0 0 512.000000 513.000000" id="facebook">
        <g transform="translate(0.000000,513.000000) scale(0.100000,-0.100000)"  >
            <path d="M2905 5123 c-68 -9 -226 -53 -301 -82 -385 -154 -636 -462 -736 -904
      -17 -79 -21 -139 -27 -412 l-6 -320 -280 -5 c-236 -4 -285 -8 -311 -22 -46
      -25 -111 -101 -123 -144 -7 -25 -11 -199 -11 -485 l0 -445 26 -52 c14 -29 42
      -66 62 -82 65 -53 108 -60 389 -60 l253 0 0 -955 c0 -1054 -4 -994 63 -1063
      18 -19 50 -43 72 -55 39 -22 47 -22 520 -22 475 0 480 0 521 22 48 25 101 83
      120 129 12 28 14 201 14 988 l0 955 328 3 c312 3 329 4 367 24 51 28 91 68
      119 119 20 39 21 52 24 470 2 293 0 446 -8 482 -14 66 -57 124 -117 160 l-48
      28 -330 5 -330 5 0 190 c1 105 4 207 8 228 14 70 22 71 362 77 257 5 306 8
      340 23 50 22 100 70 128 122 22 39 22 48 22 475 0 430 0 436 -22 476 -28 52
      -71 96 -116 118 -31 14 -86 16 -489 15 -249 -1 -466 -4 -483 -6z m813 -600
      l-3 -318 -270 -6 c-213 -4 -281 -9 -322 -22 -110 -36 -204 -127 -237 -231 -27
      -82 -38 -240 -34 -489 3 -246 7 -266 56 -310 47 -43 81 -46 440 -47 l342 0 0
      -345 0 -345 -356 0 c-341 0 -358 -1 -393 -21 -20 -11 -48 -36 -61 -56 l-25
      -37 -3 -993 -2 -993 -355 0 -355 0 -2 993 -3 993 -25 37 c-13 20 -41 45 -61
      56 -35 20 -53 21 -338 21 l-301 0 0 345 0 345 288 0 c300 1 338 6 384 47 52
      47 52 50 59 478 6 389 7 403 32 495 42 156 90 256 174 368 125 165 323 282
      549 326 115 22 118 23 487 24 l337 2 -2 -317z"></path>
        </g>
    </symbol>
    <symbol version="1.0"
        xmlns="http://www.w3.org/2000/svg" preserveAspectRatio="xMidYMid meet" viewBox="0 0 512.000000 512.000000" id="twitter">
        <g transform="translate(0.000000,512.000000) scale(0.100000,-0.100000)"  >
            <path d="M3338 4625 c-250 -41 -501 -174 -674 -357 -186 -197 -279 -414 -300
      -700 -8 -113 4 -105 -129 -82 -372 64 -728 209 -1049 428 -185 126 -325 251
      -535 480 -50 54 -74 66 -132 66 -45 0 -84 -17 -115 -52 -28 -30 -84 -143 -117
      -235 -94 -262 -75 -599 49 -845 l23 -46 -24 -6 c-38 -10 -92 -63 -106 -103
      -17 -52 -5 -207 25 -325 49 -192 143 -363 280 -505 69 -72 73 -80 60 -98 -31
      -42 -37 -96 -19 -155 48 -152 156 -319 288 -447 97 -93 167 -144 282 -205 l70
      -37 -65 -29 c-237 -107 -533 -159 -840 -147 -173 7 -175 6 -210 -17 -67 -45
      -91 -148 -51 -215 51 -83 465 -289 759 -379 777 -236 1644 -153 2327 223 586
      322 1030 815 1294 1436 129 303 200 619 223 982 l11 190 74 77 c108 115 187
      228 254 363 67 136 99 254 99 361 0 87 -23 127 -90 162 -57 29 -97 24 -182
      -22 -142 -78 -302 -110 -433 -87 -59 11 -75 18 -119 58 -139 124 -323 217
      -519 259 -102 22 -302 27 -409 9z m335 -319 c148 -29 295 -105 407 -212 64
      -61 117 -87 210 -104 77 -14 298 -15 359 -1 51 11 51 9 -10 -82 -63 -92 -133
      -170 -205 -228 -94 -74 -95 -78 -99 -303 -7 -347 -58 -611 -177 -920 -221
      -569 -646 -1052 -1178 -1339 -585 -316 -1325 -401 -1970 -226 -63 17 -125 33
      -137 36 -38 9 -26 18 40 32 111 22 329 100 463 165 152 75 363 212 396 259 33
      46 33 139 0 185 -34 47 -66 60 -178 71 -161 17 -291 65 -419 156 -60 42 -175
      156 -175 172 0 5 41 14 91 21 103 14 152 32 192 70 72 69 49 199 -43 247 -14
      7 -54 20 -89 29 -205 52 -399 202 -506 391 -32 56 -69 145 -63 150 2 2 37 -3
      78 -11 115 -20 195 -18 240 7 70 40 101 139 65 209 -8 16 -47 55 -87 87 -101
      83 -110 91 -163 158 -60 75 -119 196 -145 299 -23 90 -27 252 -9 337 l11 51
      77 -75 c404 -397 1012 -692 1597 -776 307 -44 374 -39 428 31 37 49 40 82 21
      194 -38 217 12 421 143 595 114 149 285 262 472 309 130 33 247 38 363 16z"></path>
        </g>
    </symbol>

</svg>